<?xml version="1.0" ?><svg id="Layer_1" style="enable-background:new 0 0 64 64;" version="1.1" viewBox="0 0 64 64" xml:space="preserve" xmlns="http://www.w3.org/2000/svg" xmlns:xlink="http://www.w3.org/1999/xlink"><style type="text/css">
	.st0{fill:#57CEF3;}
	.st1{fill:#FFF200;}
	.st2{fill:#CCE490;}
	.st3{fill:#34A853;}
	.st4{fill:#4285F4;}
	.st5{fill:#314A52;}
	.st6{fill:#FF6C58;}
</style><g id="Google_Meet"><path class="st0" d="M2,19l14,0.9V52H6c-2.2,0-4-1.8-4-4V19z"/><path class="st1" d="M15,6h31c2.2,0,4,1.8,4,4v20H36V20H16L15,6z"/><path class="st2" d="M16,40h20V30l19.5-16.1c2.6-2.2,6.5-0.3,6.5,3.1v26c0,3.4-4,5.2-6.6,3.1L50,41.5V50c0,2.2-1.8,4-4,4H16V40z"/><path class="st3" d="M36,30l16-13.2V28c0,2.2,1.8,4,4,4c2.2,0,4-1.8,4-4h1v21l-9-7.6V50c0,3.3-2.7,6-6,6H15v-8.2   c1.6,0.1,3.3,0.2,5,0.2c15.5,0,28-3.2,28-7c0-0.6-0.3-1.2-0.9-1.8L36,30z"/><path class="st4" d="M4,44V19l-4,1v30c0,3.3,2.7,6,6,6h10v-8.1C9.1,47.4,4,45.9,4,44z"/><path class="st5" d="M15,8h31c1.1,0,2,0.9,2,2v12.8l10.4-8.6c0.7-0.5,1.6-0.1,1.6,0.8v30.2c0,0.8-1,1.3-1.6,0.8L52,40.6v5.2   l3.8,3.2c3.3,2.7,8.2,0.4,8.2-3.8V14.9c0-4.2-4.9-6.6-8.2-3.8L52,14.2V10c0-3.3-2.7-6-6-6H16L15,8z"/><polygon class="st6" points="16,4 16,20 0,20  "/></g></svg>