<?xml version="1.0" standalone="no"?>
<!DOCTYPE svg PUBLIC "-//W3C//DTD SVG 20010904//EN"
 "http://www.w3.org/TR/2001/REC-SVG-20010904/DTD/svg10.dtd">
<svg version="1.0" xmlns="http://www.w3.org/2000/svg"
 width="64.000000pt" height="64.000000pt" viewBox="0 0 64.000000 64.000000"
 preserveAspectRatio="xMidYMid meet">

<g transform="translate(0.000000,64.000000) scale(0.100000,-0.100000)"
fill="#47A992" stroke="none">
<path d="M217 633 c-4 -3 -7 -19 -7 -35 l0 -28 -78 0 c-47 0 -83 -5 -90 -12
-15 -15 -17 -325 -2 -348 12 -19 176 -28 193 -11 8 8 -11 11 -70 11 -45 0 -88
3 -97 6 -13 5 -16 25 -16 120 0 113 0 114 24 114 15 0 26 -7 29 -20 3 -14 14
-20 32 -20 18 0 29 6 32 20 4 15 14 20 39 20 19 0 34 5 34 10 0 6 -39 10 -96
10 l-95 0 3 38 3 37 265 0 265 0 3 -37 3 -38 -95 0 c-57 0 -96 -4 -96 -10 0
-5 15 -10 34 -10 25 0 35 -5 39 -20 3 -14 14 -20 32 -20 18 0 29 6 32 20 3 13
14 20 29 20 24 0 24 -1 24 -114 0 -132 5 -126 -106 -126 -47 0 -74 -4 -74 -11
0 -18 178 -8 190 11 15 23 13 333 -2 348 -8 8 -65 12 -190 12 l-178 0 0 25 c0
25 1 25 80 25 73 0 80 -2 80 -20 0 -11 5 -20 10 -20 11 0 13 20 4 44 -5 13
-23 16 -93 16 -48 0 -91 -3 -94 -7z"/>
<path d="M270 489 c0 -17 4 -38 10 -48 6 -13 1 -68 -15 -175 -14 -87 -25 -168
-25 -181 0 -15 14 -34 40 -55 l40 -32 40 32 c48 38 47 31 16 242 -12 87 -19
163 -14 170 4 7 8 28 8 46 0 32 0 32 -50 32 -49 0 -50 -1 -50 -31z m78 -11
c-2 -17 -11 -24 -30 -26 -24 -3 -28 0 -28 22 0 22 4 26 31 26 26 0 30 -3 27
-22z m-14 -65 c3 -10 10 -55 17 -101 13 -91 15 -84 -66 -177 l-26 -30 5 30 c3
17 12 75 21 130 23 154 25 165 35 165 5 0 11 -8 14 -17z m36 -234 c0 -18 -91
-120 -101 -113 -5 3 12 32 38 64 48 59 63 70 63 49z m-11 -125 c-12 -13 -28
-24 -35 -24 -28 0 -24 23 13 68 l38 47 3 -34 c3 -24 -3 -40 -19 -57z"/>
</g>
</svg>
