<?xml version="1.0" standalone="no"?>
<!DOCTYPE svg PUBLIC "-//W3C//DTD SVG 20010904//EN"
 "http://www.w3.org/TR/2001/REC-SVG-20010904/DTD/svg10.dtd">
<svg version="1.0" xmlns="http://www.w3.org/2000/svg"
 width="64.000000pt" height="64.000000pt" viewBox="0 0 64.000000 64.000000"
 preserveAspectRatio="xMidYMid meet">

<g transform="translate(0.000000,64.000000) scale(0.100000,-0.100000)"
fill="#47A992" stroke="none">
<path d="M331 543 c-8 -14 -13 -15 -35 -5 -25 11 -34 10 -88 -10 -29 -11 -68
-67 -68 -99 0 -12 -7 -19 -18 -19 -29 0 -42 -21 -42 -65 0 -29 -6 -47 -20 -60
-11 -10 -25 -35 -31 -56 -10 -31 -9 -43 7 -75 51 -104 217 -104 268 0 16 32
17 44 7 75 -6 21 -20 46 -31 56 -14 13 -20 31 -20 60 0 44 -13 65 -41 65 -11
0 -18 11 -22 37 -10 61 25 82 72 42 18 -15 21 -23 13 -31 -21 -21 -13 -37 27
-62 26 -17 43 -37 51 -60 23 -71 92 -99 163 -68 109 48 126 199 28 256 -28 16
-40 18 -71 9 -31 -8 -44 -6 -71 8 -43 23 -65 23 -78 2z m64 -13 c24 -16 40
-18 87 -13 54 5 58 4 87 -25 25 -24 31 -39 31 -72 0 -119 -126 -195 -201 -121
-17 17 -29 40 -29 55 0 18 -10 30 -40 47 -22 13 -40 27 -40 32 0 14 60 117 68
117 4 0 20 -9 37 -20z m-104 -11 c11 -5 17 -14 14 -20 -7 -11 -45 7 -45 21 0
13 7 13 31 -1z m-111 -84 c0 -14 -4 -25 -10 -25 -5 0 -10 11 -10 25 0 14 5 25
10 25 6 0 10 -11 10 -25z m60 -89 c0 -36 6 -50 30 -74 72 -73 12 -182 -100
-182 -112 0 -172 109 -100 182 24 24 30 38 30 74 l0 44 70 0 70 0 0 -44z"/>
<path d="M345 480 c-10 -16 9 -33 30 -28 16 3 15 5 -3 21 -14 13 -22 15 -27 7z"/>
<path d="M453 470 c-63 -38 -68 -135 -8 -162 82 -37 166 115 92 167 -28 20
-46 19 -84 -5z m85 -12 c37 -37 -12 -138 -67 -138 -37 0 -51 17 -51 61 0 65
78 117 118 77z"/>
<path d="M156 362 c-7 -11 4 -52 14 -52 10 0 21 41 14 52 -7 10 -21 10 -28 0z"/>
<path d="M123 265 c-69 -30 -66 -102 4 -131 70 -30 154 20 139 81 -12 49 -88
75 -143 50z m105 -21 c30 -20 30 -68 0 -88 -12 -9 -38 -16 -58 -16 -48 0 -80
24 -80 60 0 36 32 60 80 60 20 0 46 -7 58 -16z"/>
</g>
</svg>
