<?xml version="1.0" standalone="no"?>
<!DOCTYPE svg PUBLIC "-//W3C//DTD SVG 20010904//EN"
 "http://www.w3.org/TR/2001/REC-SVG-20010904/DTD/svg10.dtd">
<svg version="1.0" xmlns="http://www.w3.org/2000/svg"
 width="64.000000pt" height="64.000000pt" viewBox="0 0 64.000000 64.000000"
 preserveAspectRatio="xMidYMid meet">

<g transform="translate(0.000000,64.000000) scale(0.100000,-0.100000)"
fill="#47A992" stroke="none">
<path d="M280 454 l0 -146 -39 31 c-36 29 -38 33 -34 74 15 130 -112 174 -182
64 -12 -19 -15 -31 -8 -35 13 -8 28 -52 24 -70 -4 -23 55 -75 78 -69 24 6 28
-13 9 -46 -7 -12 -15 -62 -18 -112 l-5 -90 -30 -6 c-16 -4 92 -7 240 -7 149 0
257 3 240 7 -28 6 -29 8 -26 50 1 25 10 55 18 68 14 21 13 26 -11 67 -35 60
-35 79 3 71 24 -5 32 -1 48 22 11 15 26 54 33 87 l14 59 -28 23 c-55 48 -137
24 -167 -48 -7 -18 -24 -48 -36 -67 -13 -19 -23 -44 -23 -57 0 -12 -4 -26 -10
-29 -7 -4 -10 48 -10 149 l0 156 -40 0 -40 0 0 -146z m70 -140 l0 -265 -27 3
-28 3 -3 263 -2 262 30 0 30 0 0 -266z m-185 192 c29 -29 40 -66 30 -103 -6
-27 -7 -27 -21 -9 -14 19 -14 19 -14 -2 0 -15 9 -26 25 -32 30 -11 33 -45 6
-60 -33 -17 -44 -12 -36 17 5 21 4 24 -7 16 -18 -15 -46 -20 -49 -8 -1 6 -10
16 -20 23 -23 16 -25 52 -4 52 8 0 15 5 15 11 0 6 -8 8 -19 4 -11 -3 -22 -1
-26 5 -10 16 25 25 47 11 10 -6 24 -9 30 -5 5 4 14 0 20 -7 7 -11 8 -9 6 6 -3
20 -22 25 -90 26 -32 0 -34 6 -10 35 41 48 81 55 117 20z m431 -19 c34 -29 27
-57 -14 -57 -15 0 -33 5 -40 12 -13 13 -46 -8 -36 -24 4 -6 9 -7 13 -1 3 6 23
8 44 5 33 -4 37 -7 37 -33 0 -17 -8 -34 -22 -43 -12 -9 -19 -16 -15 -16 5 0 5
-5 2 -11 -5 -7 -15 -5 -31 6 -22 14 -24 14 -30 -10 -7 -29 -20 -32 -45 -9 -18
16 -17 18 11 44 17 16 30 34 30 42 0 7 -10 2 -23 -13 -25 -29 -77 -55 -77 -38
0 5 7 21 16 34 8 13 25 43 37 67 35 68 94 87 143 45z m-332 -192 c12 -19 16
-50 16 -135 l0 -110 -34 0 c-33 0 -33 1 -40 52 -10 84 -7 122 10 146 17 25 3
30 -17 6 -10 -12 -13 -43 -11 -110 l3 -94 -35 0 -36 0 0 68 c0 101 14 141 56
158 19 8 37 21 41 29 8 22 29 18 47 -10z m177 9 c7 -8 24 -21 39 -29 37 -19
68 -80 54 -103 -7 -10 -15 -41 -19 -70 -7 -52 -8 -53 -39 -50 l-31 3 4 93 c3
90 -5 122 -32 122 -5 0 -3 -8 6 -18 14 -16 16 -32 9 -108 -7 -88 -7 -89 -34
-92 l-28 -3 0 109 c0 95 3 113 21 136 24 30 32 32 50 10z"/>
<path d="M568 403 c7 -3 16 -2 19 1 4 3 -2 6 -13 5 -11 0 -14 -3 -6 -6z"/>
</g>
</svg>
