<?xml version="1.0" standalone="no"?>
<!DOCTYPE svg PUBLIC "-//W3C//DTD SVG 20010904//EN"
 "http://www.w3.org/TR/2001/REC-SVG-20010904/DTD/svg10.dtd">
<svg version="1.0" xmlns="http://www.w3.org/2000/svg"
 width="64.000000pt" height="64.000000pt" viewBox="0 0 64.000000 64.000000"
 preserveAspectRatio="xMidYMid meet">

<g transform="translate(0.000000,64.000000) scale(0.100000,-0.100000)"
fill="#47A992" stroke="none">
<path d="M85 565 c-30 -29 -33 -74 -6 -106 19 -24 19 -24 -15 -61 -90 -100 -2
-246 199 -327 l57 -23 57 23 c145 59 233 149 233 241 0 40 -5 54 -34 86 -34
37 -34 37 -15 61 63 77 -46 177 -116 106 -26 -25 -32 -68 -15 -95 6 -9 5 -17
-3 -22 -24 -15 -37 -8 -37 20 0 38 -28 62 -72 62 -41 0 -68 -25 -68 -63 0 -27
-14 -34 -37 -19 -8 5 -9 13 -3 22 30 48 -12 120 -70 120 -19 0 -40 -9 -55 -25z
m99 -11 c36 -35 7 -104 -42 -104 -54 0 -81 62 -45 102 20 22 66 24 87 2z m358
-1 c38 -34 11 -103 -40 -103 -53 0 -83 68 -46 104 20 21 63 20 86 -1z m-187
-58 c14 -13 25 -31 25 -40 0 -21 -36 -55 -60 -55 -24 0 -60 34 -60 55 0 18 44
65 60 65 6 0 22 -11 35 -25z m-93 -83 c9 -9 6 -18 -15 -40 -15 -16 -30 -45
-34 -65 -3 -21 -11 -37 -19 -37 -7 0 -18 -9 -24 -20 -24 -45 109 -139 199
-141 l46 -1 -40 -19 c-54 -25 -62 -24 -145 17 -179 90 -238 228 -130 302 29
20 44 23 93 20 31 -2 63 -10 69 -16z m279 -5 c67 -45 70 -140 5 -200 -44 -42
-133 -82 -181 -81 -45 1 -103 28 -155 72 -31 27 -33 32 -20 46 14 14 20 12 65
-19 60 -43 104 -56 148 -44 41 11 136 71 121 76 -7 2 -29 -8 -50 -22 l-39 -27
-6 66 c-5 54 -11 72 -32 94 -33 34 -33 40 -4 52 43 17 112 11 148 -13z m-156
-52 c22 -21 25 -33 25 -89 0 -60 -2 -66 -23 -71 -28 -7 -69 7 -119 42 -31 21
-38 32 -38 60 0 49 37 83 90 83 30 0 47 -6 65 -25z"/>
</g>
</svg>
