<?xml version="1.0" standalone="no"?>
<!DOCTYPE svg PUBLIC "-//W3C//DTD SVG 20010904//EN"
 "http://www.w3.org/TR/2001/REC-SVG-20010904/DTD/svg10.dtd">
<svg version="1.0" xmlns="http://www.w3.org/2000/svg"
 width="64.000000pt" height="64.000000pt" viewBox="0 0 64.000000 64.000000"
 preserveAspectRatio="xMidYMid meet">

<g transform="translate(0.000000,64.000000) scale(0.100000,-0.100000)"
fill="#47A992" stroke="none">
<path d="M555 616 c-14 -9 -60 -15 -140 -19 -174 -7 -187 -12 -231 -99 -34
-68 -35 -72 -18 -85 10 -7 26 -13 36 -13 10 0 18 -7 18 -15 0 -56 74 -112 131
-100 44 10 87 51 95 90 4 24 15 38 40 51 32 18 35 18 64 1 34 -20 66 -15 74
11 2 9 2 55 -2 102 -6 75 -9 85 -27 88 -11 1 -29 -4 -40 -12z m45 -96 c0 -73
-2 -80 -20 -80 -18 0 -20 7 -20 80 0 73 2 80 20 80 18 0 20 -7 20 -80z m-70 3
l0 -48 -63 -33 c-34 -18 -65 -32 -69 -32 -16 0 -7 28 17 50 29 27 32 42 8 39
-10 -1 -36 3 -58 10 -52 17 -104 -3 -131 -48 -10 -17 -26 -31 -36 -31 -10 0
-18 2 -18 5 0 6 50 107 56 114 10 11 82 19 182 20 l112 1 0 -47z m-162 -53 c6
0 9 -7 6 -15 -4 -9 -19 -15 -35 -15 -16 0 -29 -4 -29 -10 0 -5 10 -10 22 -10
26 0 58 -27 58 -49 0 -9 -13 -29 -30 -44 -25 -24 -31 -26 -36 -13 -3 9 -15 16
-25 16 -10 0 -19 7 -19 15 0 10 10 15 34 15 19 0 38 5 41 10 3 6 -3 10 -15 10
-62 0 -78 45 -32 91 23 24 29 26 38 14 6 -8 16 -15 22 -15z"/>
<path d="M20 248 c-1 -6 -1 -184 -1 -195 1 -19 57 -16 76 4 16 15 21 14 71
-10 70 -34 148 -36 225 -5 74 29 81 37 66 68 -14 27 -52 33 -109 17 -21 -5
-28 -4 -28 6 0 8 -26 31 -57 52 -48 32 -66 38 -105 37 -29 0 -51 4 -58 14 -10
11 -79 21 -80 12z m58 -101 c3 -72 1 -77 -18 -77 -18 0 -20 6 -20 81 0 71 2
80 18 77 14 -3 17 -16 20 -81z m175 18 c26 -20 47 -40 47 -45 0 -14 -31 -12
-60 5 -14 8 -31 14 -37 15 -25 0 -12 -16 30 -39 l43 -23 72 23 c56 18 75 20
84 11 16 -16 4 -26 -60 -51 -72 -29 -137 -27 -187 4 -22 13 -48 25 -57 25 -15
0 -18 9 -18 55 l0 55 48 0 c38 0 56 -7 95 -35z"/>
</g>
</svg>
