<?xml version="1.0" standalone="no"?>
<!DOCTYPE svg PUBLIC "-//W3C//DTD SVG 20010904//EN"
 "http://www.w3.org/TR/2001/REC-SVG-20010904/DTD/svg10.dtd">
<svg version="1.0" xmlns="http://www.w3.org/2000/svg"
 width="64.000000pt" height="64.000000pt" viewBox="0 0 64.000000 64.000000"
 preserveAspectRatio="xMidYMid meet">

<g transform="translate(0.000000,64.000000) scale(0.100000,-0.100000)"
fill="#47A992" stroke="none">
<path d="M163 522 c-78 -53 -142 -102 -143 -108 0 -15 35 -46 43 -37 10 10 8
-91 -2 -102 -13 -15 -41 -105 -41 -132 0 -13 11 -34 25 -47 33 -31 33 -56 0
-56 -14 0 -25 -4 -25 -10 0 -6 107 -10 300 -10 193 0 300 4 300 10 0 6 -11 10
-25 10 l-25 0 0 172 c0 94 3 168 7 165 8 -9 43 22 43 37 -1 13 -285 206 -302
205 -7 0 -77 -44 -155 -97z m300 -17 c70 -47 127 -91 127 -96 0 -12 3 -14
-142 83 -65 43 -122 78 -128 78 -6 0 -66 -37 -133 -82 -139 -94 -137 -93 -137
-79 0 14 262 191 275 187 6 -2 68 -43 138 -91z m-17 -36 l104 -71 0 -89 c0
-76 -3 -92 -20 -109 -11 -11 -20 -27 -20 -35 0 -25 -15 -17 -27 15 -6 17 -17
30 -23 30 -6 0 -17 -13 -23 -30 -12 -31 -27 -40 -27 -17 0 7 -7 22 -15 33 -15
19 -15 19 -30 0 -10 -13 -15 -43 -15 -88 l0 -68 -30 0 -30 0 0 100 0 100 -65
0 -65 0 0 -100 0 -100 -35 0 c-43 0 -47 22 -10 56 14 13 25 34 25 47 0 27 -28
117 -41 131 -5 6 -9 35 -9 66 l0 56 112 77 c62 43 119 75 126 72 7 -3 60 -37
118 -76z m-341 -263 c22 -63 11 -106 -25 -106 -36 0 -47 43 -25 106 10 30 21
54 25 54 4 0 15 -24 25 -54z m165 -76 l0 -90 -45 0 -45 0 0 90 0 90 45 0 45 0
0 -90z m120 -25 c0 -37 -4 -65 -10 -65 -6 0 -10 28 -10 65 0 37 4 65 10 65 6
0 10 -28 10 -65z m80 0 c0 -37 -4 -65 -10 -65 -6 0 -10 28 -10 65 0 37 4 65
10 65 6 0 10 -28 10 -65z m80 0 c0 -37 -4 -65 -10 -65 -6 0 -10 28 -10 65 0
37 4 65 10 65 6 0 10 -28 10 -65z m-120 15 c0 -5 -4 -10 -10 -10 -5 0 -10 5
-10 10 0 6 5 10 10 10 6 0 10 -4 10 -10z m80 0 c0 -5 -4 -10 -10 -10 -5 0 -10
5 -10 10 0 6 5 10 10 10 6 0 10 -4 10 -10z m-80 -55 c0 -14 -4 -25 -10 -25 -5
0 -10 11 -10 25 0 14 5 25 10 25 6 0 10 -11 10 -25z m80 0 c0 -14 -4 -25 -10
-25 -5 0 -10 11 -10 25 0 14 5 25 10 25 6 0 10 -11 10 -25z"/>
<path d="M262 438 c-16 -16 -16 -100 0 -116 16 -16 100 -16 116 0 16 16 16
100 0 116 -7 7 -33 12 -58 12 -25 0 -51 -5 -58 -12z m48 -28 c0 -13 -7 -20
-20 -20 -19 0 -27 20 -13 33 13 14 33 6 33 -13z m58 -3 c2 -12 -3 -17 -17 -17
-15 0 -21 6 -21 21 0 25 33 22 38 -4z m-58 -58 c0 -14 -5 -19 -17 -17 -26 5
-29 38 -4 38 15 0 21 -6 21 -21z m58 4 c-5 -26 -38 -29 -38 -4 0 15 6 21 21
21 14 0 19 -5 17 -17z"/>
<path d="M230 130 c0 -5 5 -10 10 -10 6 0 10 5 10 10 0 6 -4 10 -10 10 -5 0
-10 -4 -10 -10z"/>
</g>
</svg>
